# xmcd CD database file
#
# Track frame offsets:
#	150
#	15462
#	41360
#	63565
#	98690
#	118552
#	140200
#	157785
#	175425
#	182022
#	214515
#	233280
#	288560
#	301957
#	313107
#	326380
#
# Disc length: 4543 seconds
#
# Revision: 0
# Processed by: cddbd v1.5.2PL0 Copyright (c) Steve Scherf et al.
# Submitted via: CDex 1.70beta2
#
DISCID=d111bd10
DTITLE=Big Apple Jazz - Big Apple Jazz
DYEAR=1900
DGENRE=Jazz
TTITLE0=Weather Report
TTITLE1=John McLaughlin
TTITLE2=Dreams
TTITLE3=Stanley Clarke
TTITLE4=Tom Scott
TTITLE5=Michel Camilo
TTITLE6=Grover Washinton
TTITLE7=Eddie Gomez
TTITLE8=Miles Davis
TTITLE9=Branford Marsalis
TTITLE10=T Hakiyoshi
TTITLE11=David Murray
TTITLE12=Earl Hines
TTITLE13=Dave Brubeck
TTITLE14=Count Basie
TTITLE15=Duke Ellington
EXTD=
EXTT0=
EXTT1=
EXTT2=
EXTT3=
EXTT4=
EXTT5=
EXTT6=
EXTT7=
EXTT8=
EXTT9=
EXTT10=
EXTT11=
EXTT12=
EXTT13=
EXTT14=
EXTT15=
PLAYORDER=
